<svg width="158" height="158" viewBox="0 0 158 158" fill="none" xmlns="http://www.w3.org/2000/svg">
<g clip-path="url(#clip0_31_6514)">
<path d="M79.0001 125.083C79.0001 99.6058 99.6059 79 125.083 79C132.193 79 138.843 80.6458 144.833 83.4767V39.5C144.833 32.2583 138.908 26.3333 131.667 26.3333H26.3334C19.0917 26.3333 13.1667 32.2583 13.1667 39.5V118.5C13.1667 125.742 19.0917 131.667 26.3334 131.667H79.5267C79.1976 129.494 79.0001 127.322 79.0001 125.083ZM26.3334 39.5L79.0001 72.4167L131.667 39.5V52.6667L79.0001 85.5833L26.3334 52.6667V39.5ZM114.155 144.833L90.8501 121.528L100.133 112.246L114.089 126.202L142.003 98.2892L151.417 107.572L114.155 144.833Z" fill="#F5F5F5"/>
</g>
<defs>
<clipPath id="clip0_31_6514">
<rect width="158" height="158" fill="white"/>
</clipPath>
</defs>
</svg>
