<svg xmlns="http://www.w3.org/2000/svg" viewBox="0 0 435.26 141.45"><title>SMARTPAY-Logo</title><g><g><g><g><g><path d="M33.89,75.75c-2.69-1.18-4.8-2.84-6.34-5-1.54-2.16-2.3-4.68-2.3-7.56h8.78c.19,2.16,1.04,3.94,2.56,5.33,1.51,1.39,3.64,2.09,6.37,2.09s5.04-.68,6.62-2.05,2.38-3.13,2.38-5.29c0-1.68-.49-3.05-1.48-4.1-.98-1.06-2.21-1.87-3.67-2.45-1.46-.58-3.49-1.2-6.08-1.87-3.26-.86-5.92-1.74-7.96-2.63-2.04-.89-3.78-2.27-5.22-4.14s-2.16-4.37-2.16-7.49c0-2.88,.72-5.4,2.16-7.56,1.44-2.16,3.46-3.82,6.05-4.97,2.59-1.15,5.59-1.73,9-1.73,4.85,0,8.82,1.21,11.92,3.64,3.1,2.42,4.81,5.75,5.15,9.97h-9.07c-.14-1.82-1.01-3.38-2.59-4.68-1.58-1.3-3.67-1.94-6.26-1.94-2.35,0-4.27,.6-5.76,1.8-1.49,1.2-2.23,2.93-2.23,5.18,0,1.54,.47,2.8,1.4,3.78,.94,.98,2.12,1.76,3.56,2.34,1.44,.58,3.41,1.2,5.9,1.87,3.31,.91,6.01,1.82,8.1,2.74,2.09,.91,3.86,2.32,5.33,4.21,1.46,1.9,2.2,4.43,2.2,7.6,0,2.54-.68,4.94-2.05,7.2-1.37,2.26-3.36,4.07-5.98,5.44-2.62,1.37-5.7,2.05-9.25,2.05-3.36,0-6.38-.59-9.07-1.76Z" style="fill:#60ab42;"></path><path d="M124.46,26.97v50.04h-8.21V42.74l-15.26,34.27h-5.69l-15.34-34.27v34.27h-8.21V26.97h8.86l17.57,39.24,17.5-39.24h8.78Z" style="fill:#60ab42;"></path><path d="M168.21,66.79h-20.95l-3.6,10.22h-8.57l17.93-50.11h9.5l17.93,50.11h-8.64l-3.6-10.22Zm-2.3-6.7l-8.14-23.26-8.21,23.26h16.34Z" style="fill:#60ab42;"></path><path d="M217.04,77.01l-11.52-20.02h-6.26v20.02h-8.21V26.97h17.28c3.84,0,7.09,.67,9.76,2.02,2.66,1.34,4.66,3.14,5.98,5.4,1.32,2.26,1.98,4.78,1.98,7.56,0,3.26-.95,6.23-2.84,8.89-1.9,2.66-4.81,4.48-8.75,5.44l12.38,20.74h-9.79Zm-17.78-26.57h9.07c3.07,0,5.39-.77,6.95-2.3,1.56-1.54,2.34-3.6,2.34-6.19s-.77-4.62-2.3-6.08c-1.54-1.46-3.86-2.2-6.98-2.2h-9.07v16.78Z" style="fill:#60ab42;"></path><path d="M270.55,26.97v6.7h-13.32v43.34h-8.21V33.67h-13.39v-6.7h34.92Z" style="fill:#60ab42;"></path><path d="M316.71,49.08c-1.2,2.26-3.12,4.09-5.76,5.51-2.64,1.42-6.02,2.12-10.15,2.12h-9.07v20.3h-8.21V26.97h17.28c3.84,0,7.09,.66,9.76,1.98,2.66,1.32,4.66,3.11,5.98,5.36,1.32,2.26,1.98,4.78,1.98,7.56,0,2.54-.6,4.94-1.8,7.2Zm-8.93-1.19c1.54-1.42,2.3-3.42,2.3-6.01,0-5.47-3.1-8.21-9.29-8.21h-9.07v16.34h9.07c3.12,0,5.45-.71,6.98-2.12Z" style="fill:#2062af;"></path><path d="M354,66.79h-20.95l-3.6,10.22h-8.57l17.93-50.11h9.5l17.93,50.11h-8.64l-3.6-10.22Zm-2.3-6.7l-8.14-23.26-8.21,23.26h16.34Z" style="fill:#2062af;"></path><path d="M407.86,26.97l-16.56,31.9v18.14h-8.21v-18.14l-16.63-31.9h9.14l11.59,24.55,11.59-24.55h9.07Z" style="fill:#2062af;"></path></g><path d="M141.17,115.13c-39.17,0-77.59-9.31-114.19-21.74-1.35-.46-2.06-1.89-1.59-3.19,.48-1.3,1.96-1.98,3.32-1.52,36.04,12.25,73.88,15.46,112.45,15.46s76.41-3.21,112.45-15.46c1.35-.46,2.84,.22,3.32,1.52,.48,1.3-.23,2.73-1.59,3.19-36.6,12.44-75.02,21.74-114.19,21.74Z" style="fill:#fbb040;"></path></g><path d="M408.01,69.16c.62,.36,1.11,.87,1.47,1.51,.36,.64,.54,1.37,.54,2.16s-.18,1.52-.54,2.15c-.36,.64-.85,1.14-1.47,1.5-.62,.36-1.33,.55-2.13,.55s-1.51-.18-2.14-.55c-.63-.36-1.12-.86-1.48-1.5-.36-.64-.54-1.35-.54-2.15s.18-1.52,.54-2.16c.36-.64,.85-1.15,1.48-1.51,.63-.36,1.34-.55,2.14-.55s1.51,.18,2.13,.55Zm.31,6.19c.62-.66,.93-1.5,.93-2.52s-.31-1.86-.93-2.52c-.62-.66-1.44-.99-2.45-.99s-1.84,.33-2.47,.99c-.62,.66-.93,1.5-.93,2.52s.31,1.86,.93,2.52c.62,.66,1.45,.99,2.47,.99s1.82-.33,2.45-.99Zm-.91-2.57c-.2,.23-.47,.38-.82,.45l1.26,1.81-1.07,.02-1.15-1.79h-.48v1.79h-.9v-4.52h1.95c.46,0,.83,.12,1.1,.37s.41,.58,.41,1c0,.35-.1,.64-.29,.87Zm-2.27-.26h.99c.2,0,.36-.05,.48-.15,.13-.1,.19-.25,.19-.44s-.06-.34-.19-.43c-.13-.09-.29-.14-.48-.14h-.99v1.16Z" style="fill:#2062af;"></path></g><rect width="435.26" height="141.45" style="fill:none;"></rect></g></g></svg>